<svg aria-hidden="true" style="position: absolute; width: 0; height: 0; overflow: hidden;" version="1.1" xmlns="http://www.w3.org/2000/svg" xmlns:xlink="http://www.w3.org/1999/xlink">
<defs>
<symbol id="icon-logo" viewBox="0 0 130 32">
<path fill="#212121" style="fill: var(--color1, #212121)" d="M48.669 17.086l-1.91-9.885-0.024-0.075h-2.594l-1.959 9.959-1.666 8.623h2.62l1.689-8.622 0.661-3.345 0.613 3.345 1.64 8.621h2.621l-1.69-8.621zM59.805 9.926v-2.675h-7.787v18.556h7.787v-2.651h-5.168v-5.277h4.286v-2.675h-4.286v-5.277h5.168zM70.979 7.25h-2.62v18.556h2.619v-18.556zM64.514 7.25h-2.62v18.556h2.62v-7.928h3.845v-2.675h-3.845v-7.952zM82.376 19.613v-1.784c0-2.427-1.959-4.409-4.36-4.409h-1.689v-3.519h5.387v-2.676h-8.007v18.581h4.309c2.4 0 4.359-1.957 4.359-4.41v-1.759h-2.644v1.759c0 0.967-0.759 1.759-1.713 1.759h-1.69v-7.060h1.689c0.955 0 1.714 0.768 1.714 1.734v1.784h2.644zM93.426 25.807v-18.556h-2.643v2.725l-3.6 4.485v-7.21h-2.62v18.556h2.62v-7.135l3.6-4.46v11.595h2.644zM100.423 7.226h-4.309v18.579h2.62v-6.192h1.689c2.4 0 4.359-1.982 4.359-4.41v-3.567c0-2.428-1.959-4.409-4.359-4.409zM102.137 15.203c0 0.966-0.759 1.734-1.714 1.734h-1.689v-7.035h1.689c0.955 0 1.714 0.768 1.714 1.734v3.569zM119.369 7.226h-2.644l-2.89 8.77v-8.77h-2.644v8.695l-2.865-8.695h-2.62l2.914 8.893-2.914 9.687h2.62l2.865-9.489v9.489h2.644v-9.564l2.89 9.563h2.644l-2.938-9.687 2.938-8.893zM129.939 11.636c0-2.429-1.959-4.41-4.359-4.41h-0.146c-2.424 0-4.359 1.981-4.359 4.409v14.171h2.62v-7.309h3.6v7.309h2.644v-14.171zM123.695 15.847v-4.21c0-0.966 0.784-1.734 1.739-1.734h0.146c0.955 0 1.714 0.768 1.714 1.734v4.211h-3.6z"></path>
<path fill="#f12d15" style="fill: var(--color2, #f12d15)" d="M0 0h31.629v32h-31.629z"></path>
<path fill="#fff" style="fill: var(--color3, #fff)" d="M12.86 12.959h-1.175l2.982-6.553c0.12-0.263 0.268-0.456 0.441-0.577s0.378-0.182 0.612-0.182c0.228 0 0.429 0.061 0.602 0.182s0.321 0.314 0.442 0.577l2.836 6.553h-1.646s-0.225-0.498-0.338-0.768l-0.933-2.194h-1.947l-0.923 2.194-0.359 0.769h-0.594zM15.7 7.68l-0.964 2.317h1.947l-0.965-2.317h-0.019zM12.918 26.581h-1.233v-5.875h4.661c1.035 0 1.849 0.255 2.444 0.763 0.602 0.509 0.842 1.301 0.842 2.238 0 0.945-0.239 1.602-0.843 2.111-0.593 0.508-1.408 0.763-2.443 0.763h-3.428zM13.062 25.128h4.129c0.563 0 1.127-0.371 1.127-1.421s-0.622-1.448-1.127-1.454c-0.504-0.006-1.411-0.032-1.871-0.032h-2.259v2.906zM11.685 16h7.946v1.625h-7.946z"></path>
</symbol>
<symbol id="icon-robot" viewBox="0 0 53 32">
<path fill="#f12d15" style="fill: var(--color2, #f12d15)" d="M50.88 20.069l-0.119-0.076c0.245-0.848 0.407-1.716 0.486-2.596l0.147-0.030c1.096-0.224 1.796-1.277 1.56-2.349l-0.939-4.27c-0.121-0.535-0.443-0.979-0.881-1.257l-0.008-0.005c-0.316-0.205-0.703-0.327-1.119-0.327-0.149 0-0.294 0.016-0.433 0.045l0.014-0.002-0.138 0.028c-0.476-0.826-0.984-1.54-1.552-2.2l0.016 0.019 0.080-0.12c0.609-0.917 0.336-2.154-0.609-2.756l-3.748-2.387c-0.945-0.602-2.21-0.345-2.819 0.572l-0.080 0.12c-0.767-0.225-1.671-0.399-2.6-0.486l-0.059-0.004-0.030-0.135c-0.121-0.535-0.443-0.978-0.881-1.257l-0.008-0.005c-0.316-0.205-0.703-0.327-1.119-0.327-0.148 0-0.293 0.016-0.433 0.045l0.014-0.002-4.366 0.891c-1.096 0.224-1.796 1.277-1.56 2.349l0.032 0.143c-0.79 0.427-1.535 0.925-2.227 1.488l-0.119-0.076c-0.945-0.602-2.21-0.346-2.819 0.572l-1.698 2.557-0.021-0.025c0.55-0.832 0.302-1.95-0.554-2.495l-3.085-1.965c-0.857-0.545-2.001-0.314-2.554 0.516-0.563-0.16-1.233-0.288-1.921-0.36l-0.053-0.005c-0.111-0.481-0.403-0.88-0.797-1.131l-0.007-0.004c-0.287-0.186-0.637-0.296-1.014-0.296-0.135 0-0.266 0.014-0.393 0.041l0.012-0.002-3.594 0.734c-0.994 0.203-1.627 1.158-1.415 2.129-0.63 0.351-1.17 0.717-1.677 1.123l0.024-0.018c-0.856-0.54-1.998-0.306-2.549 0.522l-1.996 3.006c-0.55 0.829-0.305 1.946 0.546 2.493-0.161 0.552-0.288 1.207-0.357 1.88l-0.004 0.049c-0.993 0.204-1.627 1.159-1.413 2.13l0.772 3.515c0.104 0.473 0.39 0.878 0.806 1.143 0.413 0.264 0.905 0.355 1.386 0.26 0.362 0.614 0.738 1.143 1.155 1.637l-0.015-0.018c-0.55 0.831-0.301 1.95 0.555 2.495l3.085 1.965c0.855 0.545 2 0.314 2.553-0.516 0.646 0.175 1.306 0.297 1.974 0.364 0.111 0.481 0.402 0.88 0.797 1.131l0.007 0.004c0.416 0.265 0.911 0.356 1.395 0.258l3.594-0.733c0.994-0.203 1.628-1.157 1.415-2.129 0.63-0.351 1.17-0.717 1.677-1.123l-0.024 0.018c0.857 0.54 1.998 0.307 2.549-0.523l0.686-1.033c0.432 0.695 0.863 1.292 1.33 1.858l-0.023-0.028-0.084 0.125c-0.609 0.918-0.335 2.154 0.61 2.756l3.747 2.387c0.945 0.602 2.21 0.345 2.819-0.572l0.080-0.12c0.869 0.244 1.758 0.408 2.66 0.49l0.029 0.134c0.121 0.535 0.443 0.978 0.881 1.257l0.008 0.005c0.459 0.293 1.005 0.393 1.538 0.285l4.366-0.891c1.096-0.224 1.796-1.277 1.56-2.35l-0.031-0.143c0.789-0.427 1.535-0.925 2.227-1.488l0.119 0.076c0.945 0.602 2.21 0.345 2.819-0.572l2.425-3.652c0.609-0.918 0.336-2.154-0.609-2.756zM22.148 23.216l-0.543-0.346c-0.149-0.096-0.33-0.153-0.525-0.153-0.25 0-0.478 0.094-0.651 0.249l0.001-0.001c-0.699 0.633-1.497 1.175-2.366 1.595l-0.060 0.026c-0.318 0.15-0.533 0.468-0.533 0.837 0 0.069 0.008 0.137 0.022 0.201l-0.001-0.006 0.137 0.621-3.457 0.705-0.136-0.617c-0.092-0.421-0.466-0.729-0.906-0.746-1.050-0.043-2.041-0.235-2.971-0.556l0.073 0.022c-0.094-0.033-0.201-0.052-0.314-0.052-0.331 0-0.623 0.167-0.797 0.421l-0.002 0.003-0.351 0.529-2.969-1.89 0.351-0.529c0.096-0.143 0.153-0.319 0.153-0.508 0-0.248-0.098-0.474-0.258-0.639l0 0c-0.652-0.685-1.21-1.468-1.648-2.322l-0.026-0.056c-0.165-0.316-0.491-0.529-0.866-0.529-0.070 0-0.138 0.007-0.203 0.021l0.006-0.001-0.632 0.129-0.743-3.38 0.635-0.13c0.421-0.084 0.736-0.441 0.755-0.875l0-0.002c0.037-1.024 0.228-1.991 0.551-2.896l-0.021 0.067c0.031-0.089 0.050-0.193 0.050-0.3 0-0.332-0.174-0.623-0.435-0.788l-0.004-0.002-0.543-0.346 1.92-2.89 0.543 0.346c0.37 0.235 0.854 0.197 1.175-0.094 0.699-0.633 1.498-1.175 2.366-1.595l0.060-0.026c0.317-0.151 0.533-0.468 0.533-0.837 0-0.069-0.008-0.137-0.022-0.202l0.001 0.006-0.136-0.621 3.457-0.705 0.136 0.618c0.099 0.42 0.465 0.731 0.905 0.745l0.002 0c0.989 0.040 1.964 0.219 2.899 0.534 0.416 0.14 0.875-0.013 1.113-0.371l0.352-0.53 2.968 1.891-0.352 0.53c-0.096 0.143-0.153 0.319-0.153 0.508 0 0.248 0.098 0.473 0.258 0.639l-0-0c0.652 0.685 1.21 1.468 1.648 2.322l0.026 0.056c0.165 0.317 0.491 0.529 0.866 0.529 0.070 0 0.138-0.007 0.203-0.021l-0.006 0.001 0.633-0.129 0.743 3.38-0.635 0.13c-0.421 0.084-0.736 0.441-0.756 0.875l-0 0.002c-0.037 1.024-0.228 1.991-0.55 2.896l0.021-0.067c-0.142 0.405 0.019 0.855 0.389 1.090l0.543 0.346-1.919 2.89zM47.453 25.45c-0.022 0.032-0.059 0.052-0.1 0.052-0.025 0-0.048-0.007-0.067-0.020l0 0-0.73-0.465c-0.149-0.096-0.33-0.154-0.525-0.154-0.25 0-0.478 0.094-0.65 0.248l0.001-0.001c-0.863 0.782-1.85 1.451-2.923 1.97l-0.074 0.032c-0.318 0.15-0.533 0.468-0.533 0.837 0 0.069 0.008 0.137 0.022 0.201l-0.001-0.006 0.184 0.838c0.002 0.007 0.002 0.015 0.002 0.024 0 0.056-0.040 0.102-0.093 0.113l-0.001 0-4.365 0.891c-0.008 0.002-0.016 0.003-0.025 0.003-0.058 0-0.107-0.040-0.121-0.094l-0-0.001-0.182-0.831c-0.093-0.421-0.466-0.729-0.906-0.746-1.297-0.053-2.521-0.29-3.671-0.687l0.090 0.027c-0.093-0.033-0.201-0.052-0.314-0.052-0.331 0-0.623 0.167-0.797 0.421l-0.002 0.003-0.474 0.714c-0.022 0.032-0.059 0.052-0.1 0.052-0.025 0-0.048-0.007-0.067-0.020l0 0-3.748-2.387c-0.034-0.021-0.056-0.058-0.056-0.1 0-0.023 0.007-0.045 0.019-0.063l-0 0 0.474-0.713c0.096-0.143 0.153-0.319 0.153-0.508 0-0.248-0.098-0.474-0.258-0.639l0 0c-0.68-0.716-1.452-1.814-2.035-2.884l0.14-0.211c0.551-0.829 0.306-1.946-0.546-2.493 0.175-0.631 0.296-1.276 0.36-1.929 0.994-0.203 1.628-1.158 1.414-2.13l-0.773-3.515c-0.11-0.484-0.402-0.887-0.799-1.139l-0.007-0.004c-0.287-0.186-0.637-0.297-1.014-0.297-0.085 0-0.169 0.006-0.251 0.017l0.010-0.001 2.061-3.103c0.022-0.032 0.059-0.052 0.1-0.052 0.025 0 0.048 0.007 0.067 0.020l-0-0 0.73 0.465c0.37 0.236 0.854 0.197 1.175-0.094 0.863-0.782 1.85-1.451 2.922-1.97l0.074-0.032c0.318-0.15 0.534-0.468 0.534-0.837 0-0.069-0.008-0.137-0.022-0.202l0.001 0.006-0.184-0.838c-0.002-0.007-0.002-0.015-0.002-0.024 0-0.056 0.040-0.102 0.092-0.113l0.001-0 4.366-0.891c0.008-0.002 0.016-0.003 0.025-0.003 0.058 0 0.107 0.040 0.121 0.094l0 0.001 0.182 0.831c0.093 0.421 0.466 0.728 0.906 0.746 1.222 0.049 2.426 0.27 3.581 0.659 0.416 0.14 0.875-0.013 1.113-0.372l0.474-0.713c0.022-0.032 0.059-0.052 0.1-0.052 0.025 0 0.048 0.007 0.067 0.020l-0-0 3.748 2.387c0.034 0.021 0.056 0.058 0.056 0.099 0 0.023-0.007 0.045-0.019 0.063l0-0-0.474 0.714c-0.096 0.143-0.153 0.319-0.153 0.508 0 0.248 0.098 0.474 0.258 0.639l-0-0c0.805 0.846 1.494 1.813 2.035 2.868l0.032 0.069c0.165 0.317 0.491 0.529 0.866 0.529 0.070 0 0.138-0.007 0.203-0.021l-0.006 0.001 0.85-0.174c0.007-0.002 0.016-0.002 0.024-0.002 0.058 0 0.107 0.040 0.121 0.094l0 0.001 0.938 4.27c0.002 0.007 0.002 0.015 0.002 0.023 0 0.056-0.040 0.102-0.092 0.113l-0.001 0-0.857 0.175c-0.421 0.084-0.736 0.441-0.755 0.875l-0 0.002c-0.046 1.265-0.282 2.46-0.68 3.578l0.026-0.083c-0.032 0.090-0.050 0.193-0.050 0.301 0 0.331 0.173 0.622 0.435 0.787l0.004 0.002 0.73 0.465c0.034 0.021 0.056 0.058 0.056 0.1 0 0.024-0.007 0.045-0.019 0.064l0-0-2.425 3.652z"></path>
<path fill="#f12d15" style="fill: var(--color2, #f12d15)" d="M37.197 7.474c-4.732 0-8.581 3.794-8.581 8.457s3.849 8.457 8.581 8.457 8.581-3.794 8.581-8.457c0-4.663-3.85-8.457-8.581-8.457zM37.197 22.509c-3.678 0-6.671-2.951-6.671-6.577s2.992-6.577 6.671-6.577c3.678 0 6.671 2.95 6.671 6.577s-2.992 6.577-6.671 6.577z"></path>
<path fill="#ad2312" style="fill: var(--color4, #ad2312)" d="M13.539 21.89c3.467 0 6.278-2.77 6.278-6.188s-2.811-6.188-6.278-6.188-6.278 2.77-6.278 6.188 2.811 6.188 6.278 6.188z"></path>
</symbol>
<symbol id="icon-graphic" viewBox="0 0 29 32">
<path fill="#ad2312" style="fill: var(--color4, #ad2312)" d="M8.762 13.39h4.571v17.929h-4.571v-17.929zM22.476 10.667h4.571v20.653h-4.571v-20.653z"></path>
<path fill="#f12d15" style="fill: var(--color2, #f12d15)" d="M28.39 30.903h-7.692v-12.069c0-0.303-0.253-0.549-0.565-0.549h-4.525c-0.312 0-0.565 0.246-0.565 0.549v12.069h-7.918v-8.557c0-0.303-0.253-0.549-0.566-0.549h-4.524c-0.312 0-0.566 0.246-0.566 0.549v8.556h-0.905c-0.75 0.029-0.75 1.069 0 1.098h27.827c0.75-0.029 0.75-1.069 0-1.097zM16.173 19.383h3.394v11.52h-3.394v-11.52zM2.599 22.895h3.394v8.008h-3.394v-8.008zM28.387 0h-2.262c-0.75 0.027-0.75 0.974 0 1h0.897l-9.879 8.734-6.252-5.528c-0.211-0.194-0.589-0.194-0.8 0l-9.925 8.776c-0.221 0.195-0.221 0.512 0 0.707s0.579 0.195 0.8 0l9.526-8.422 6.252 5.528c0.221 0.195 0.579 0.195 0.8 0l10.278-9.087v0.792c0.030 0.664 1.101 0.663 1.131 0v-2c0-0.276-0.253-0.5-0.565-0.5z"></path>
</symbol>
<symbol id="icon-head" viewBox="0 0 20 32">
<path fill="#f12d15" style="fill: var(--color2, #f12d15)" d="M7.92 2.565h0.477v2.854c0 0.157 0.141 0.284 0.316 0.284h1.268c0.174 0 0.316-0.127 0.316-0.284v-2.854h0.476c0.249 0 0.4-0.249 0.265-0.438l-1.426-1.997c-0.124-0.173-0.406-0.174-0.531 0l-1.427 1.997c-0.135 0.189 0.016 0.438 0.266 0.438zM9.347 0.809l0.848 1.187h-0.214c-0.174 0-0.316 0.127-0.316 0.284v2.854h-0.637v-2.853c0-0.157-0.141-0.284-0.316-0.284h-0.214l0.848-1.188zM1.9 4.434h0.477v2.537c0 0.174 0.141 0.316 0.316 0.316h1.268c0.174 0 0.316-0.141 0.316-0.316v-2.537h0.477c0.174-0 0.315-0.142 0.315-0.316 0-0.063-0.019-0.122-0.051-0.172l0.001 0.001-1.426-2.219c-0.057-0.088-0.155-0.145-0.265-0.145s-0.208 0.057-0.265 0.144l-0.001 0.001-1.427 2.219c-0.031 0.048-0.050 0.107-0.050 0.17 0 0.174 0.141 0.316 0.316 0.316v0zM3.327 2.484l0.848 1.319h-0.214c-0.174 0-0.316 0.141-0.316 0.316v0 2.537h-0.637v-2.537c0-0.174-0.141-0.316-0.316-0.316v0h-0.214l0.848-1.32zM12.673 5.068h0.477v2.537c0 0.174 0.141 0.316 0.316 0.316h1.268c0.174 0 0.316-0.141 0.316-0.316v-2.537h0.477c0.174-0 0.315-0.142 0.315-0.316 0-0.063-0.019-0.122-0.051-0.172l0.001 0.001-1.426-2.219c-0.057-0.088-0.155-0.145-0.265-0.145s-0.208 0.057-0.265 0.144l-0.001 0.001-1.427 2.219c-0.031 0.048-0.050 0.107-0.050 0.17 0 0.174 0.141 0.316 0.316 0.316v0zM14.099 3.117l0.848 1.319h-0.214c-0 0-0 0-0 0-0.174 0-0.316 0.141-0.316 0.316 0 0 0 0 0 0v0 2.537h-0.636v-2.537c0-0.174-0.141-0.316-0.316-0.316v0h-0.214l0.848-1.32z"></path>
<path fill="#ad2312" style="fill: var(--color4, #ad2312)" d="M10.001 22.053c2.837-0.381 4.829-2.99 4.448-5.827s-2.99-4.829-5.827-4.448c-2.838 0.381-4.829 2.99-4.448 5.827s2.99 4.828 5.827 4.448z"></path>
<path fill="#fff" style="fill: var(--color3, #fff)" d="M9.916 16.431c-0.402-0.143-0.847-0.314-1.094-0.508-0.072-0.056-0.102-0.188-0.076-0.329 0.013-0.071 0.076-0.307 0.316-0.38 0.434-0.13 0.772 0.108 0.812 0.137 0.081 0.068 0.186 0.109 0.301 0.109 0.26 0 0.47-0.21 0.47-0.47 0-0.134-0.056-0.256-0.147-0.341l-0-0c-0.12-0.114-0.393-0.274-0.716-0.355v-0.201c0-0.26-0.211-0.47-0.47-0.47s-0.47 0.211-0.47 0.47v0 0.208c-1.11 0.301-1.378 1.752-0.599 2.363 0.286 0.224 0.681 0.414 1.361 0.655 0.435 0.154 0.425 0.505 0.401 0.648-0.049 0.294-0.297 0.612-0.723 0.615-0.432 0.003-0.556-0.017-0.884-0.231-0.073-0.048-0.162-0.077-0.258-0.077-0.26 0-0.47 0.211-0.47 0.47 0 0.164 0.084 0.308 0.211 0.392l0.002 0.001c0.364 0.238 0.632 0.334 0.96 0.368v0.245c0 0.26 0.21 0.47 0.47 0.47s0.47-0.21 0.47-0.47v0-0.303c0.644-0.2 1.056-0.765 1.15-1.324 0.126-0.752-0.282-1.431-1.015-1.691z"></path>
<path fill="#f12d15" style="fill: var(--color2, #f12d15)" d="M20.212 24.686l-2.103-3.587c0.305-1.057 0.449-2.993 0.459-3.865 0.057-5.18-4.243-9.406-9.471-9.312-5.294 0.095-9.578 4.578-9.054 10.013 0.144 1.5 0.459 2.25 1.232 5.395 0.401 1.61 0.632 3.459 0.632 5.361v2.839c0 0.259 0.212 0.47 0.474 0.47l11.248-0.003c0.35 0 0.635-0.282 0.635-0.629v-2.671h1.084c0.977 0 1.772-0.845 1.772-1.884v-1.419l2.681-0.002c0.365 0 0.594-0.393 0.41-0.707zM16.806 24.453c-0.001 0-0.001 0-0.002 0-0.348 0-0.631 0.281-0.633 0.629v1.731c0 0.52-0.369 0.944-0.822 0.944h-1.399c-0.35 0-0.635 0.282-0.635 0.629v2.671l-10.458 0.003v-2.368c0-1.877-0.222-3.755-0.659-5.582-0.66-2.773-1.060-3.711-1.21-5.264-0.472-4.9 3.397-8.899 8.126-8.983 4.666-0.083 8.556 3.688 8.504 8.361-0.011 1.055-0.197 3.003-0.473 3.778-0.017 0.046-0.027 0.1-0.027 0.156 0 0.095 0.029 0.184 0.077 0.257l-0.001-0.002 1.782 3.039-2.171 0.001z"></path>
</symbol>
<symbol id="icon-rocket" viewBox="0 0 19 32">
<path fill="#212121" style="fill: var(--color1, #212121)" d="M9.6 18.207c2.272 0 4.13-1.852 4.149-4.138s-1.808-4.138-4.080-4.138c-2.272 0-4.13 1.853-4.149 4.138s1.807 4.138 4.080 4.138z"></path>
<path fill="#ad2312" style="fill: var(--color4, #ad2312)" d="M18.864 20.271l-2.479-1.283c0.355-2.113 0.63-4.289 0.63-5.952 0-4.678-1.929-7.95-3.547-9.87-1.754-2.080-3.501-3.050-3.575-3.091-0.084-0.047-0.185-0.075-0.293-0.075s-0.208 0.028-0.296 0.077l0.003-0.002c-0.074 0.040-1.821 1.010-3.575 3.092-1.618 1.92-3.547 5.191-3.547 9.87 0 1.663 0.275 3.838 0.63 5.951l-2.48 1.283c-0.202 0.107-0.336 0.316-0.336 0.556 0 0.041 0.004 0.081 0.012 0.12l-0.001-0.004 1.38 7.419c0.038 0.206 0.176 0.379 0.368 0.46 0.070 0.031 0.152 0.048 0.238 0.048 0.128 0 0.247-0.039 0.345-0.107l-0.002 0.001 2.751-1.866h1.568c-0.045 0.211-0.069 0.428-0.069 0.647 0 1.519 2.142 3.819 2.571 4.265 0.112 0.116 0.268 0.188 0.441 0.188s0.329-0.072 0.441-0.187l0-0c0.429-0.446 2.57-2.746 2.57-4.265 0-0.219-0.023-0.436-0.068-0.647h1.567l2.751 1.866c0.096 0.066 0.215 0.106 0.343 0.106 0.086 0 0.168-0.018 0.242-0.050l-0.004 0.002c0.191-0.081 0.329-0.254 0.367-0.461l1.38-7.419c0.007-0.035 0.011-0.075 0.011-0.116 0-0.24-0.135-0.449-0.333-0.554l-0.003-0.002zM6.637 4.017c1.202-1.437 2.42-2.31 2.963-2.662 0.544 0.352 1.761 1.225 2.963 2.662 0.322 0.382 0.64 0.804 0.934 1.244l0.033 0.052h-7.859c0.327-0.491 0.644-0.914 0.984-1.317l-0.018 0.022zM4.937 6.563h9.327c1.009 1.952 1.519 4.119 1.519 6.473 0 3.821-1.58 10.748-2.023 12.613h-8.319c-0.443-1.865-2.023-8.791-2.023-12.614 0-2.354 0.51-4.521 1.519-6.473zM1.307 21.171l1.735-0.897c0.484 2.659 0.903 4.58 1.369 6.483l-0.163-0.79-1.819 1.234-1.121-6.030zM11.379 27.547c0 0.634-0.933 1.942-1.779 2.91-0.846-0.967-1.779-2.276-1.779-2.91 0-0.223 0.040-0.442 0.118-0.647h3.322c0.075 0.192 0.118 0.414 0.118 0.646 0 0 0 0.001 0 0.001v-0zM16.771 27.201l-1.819-1.234c0.302-1.112 0.721-3.033 1.091-4.971l0.115-0.721 1.734 0.898-1.121 6.029z"></path>
<path fill="#fff" style="fill: var(--color3, #fff)" d="M9.6 16.071c1.085 0 1.968-0.896 1.968-1.996s-0.883-1.996-1.968-1.996-1.968 0.896-1.968 1.996c0 1.1 0.883 1.996 1.968 1.996zM9.6 13.329c0.405 0 0.736 0.335 0.736 0.746s-0.331 0.746-0.736 0.746c-0.407-0.003-0.736-0.334-0.736-0.741 0-0.002 0-0.003 0-0.005v0c0-0.411 0.33-0.746 0.736-0.746z"></path>
</symbol>
<symbol id="icon-mishen" viewBox="0 0 37 32">
<path fill="#212121" style="fill: var(--color1, #212121)" d="M15.040 7.476c-4.187 0-7.594 3.421-7.594 7.625s3.406 7.626 7.593 7.626c4.187 0 7.594-3.421 7.594-7.626s-3.407-7.626-7.594-7.626zM15.040 19.347c-2.335 0-4.228-1.901-4.228-4.245s1.893-4.246 4.228-4.246c2.335 0 4.228 1.901 4.228 4.246s-1.893 4.245-4.228 4.245z"></path>
<path fill="#ad2312" style="fill: var(--color4, #ad2312)" d="M35.506 15.021l0.996-2.094c0.044-0.090 0.069-0.196 0.069-0.308 0-0.142-0.041-0.274-0.112-0.385l0.002 0.003c-0.128-0.202-0.351-0.334-0.604-0.334h-5.114c-0.263 0-0.505 0.145-0.629 0.377l-0.225 0.42c-1.149-7.189-7.37-12.699-14.848-12.699-8.293 0-15.040 6.775-15.040 15.102 0 5.643 3.099 10.574 7.677 13.166l-2.5 2.51c-0.129 0.13-0.209 0.309-0.209 0.506s0.080 0.377 0.21 0.507v0c0.129 0.13 0.307 0.21 0.505 0.21s0.377-0.081 0.506-0.211l0-0 2.836-2.848c1.766 0.797 3.829 1.261 6 1.261 0.005 0 0.011 0 0.016 0h-0.001c0.004 0 0.010 0 0.015 0 2.171 0 4.234-0.464 6.095-1.299l-0.094 0.038 2.836 2.848c0.129 0.13 0.308 0.211 0.505 0.211s0.376-0.081 0.505-0.211l0-0c0.129-0.13 0.209-0.309 0.209-0.506s-0.080-0.376-0.209-0.506l0 0-2.5-2.511c3.951-2.236 6.8-6.214 7.506-10.888l0.206 0.384c0.125 0.232 0.366 0.377 0.629 0.377h5.114c0.245 0 0.473-0.126 0.604-0.334s0.146-0.469 0.041-0.691l-0.997-2.094zM15.040 28.77c-7.505 0-13.611-6.132-13.611-13.669s6.106-13.669 13.611-13.669c7.238 0 13.175 5.704 13.588 12.871h-1.941c-0.409-6.093-5.477-10.924-11.646-10.924-6.437 0-11.674 5.258-11.674 11.721s5.237 11.722 11.674 11.722c6.224 0 11.327-4.917 11.657-11.086h1.939c-0.331 7.243-6.303 13.033-13.596 13.033zM19.918 14.304c-0.381-2.359-2.423-4.165-4.878-4.165-2.726 0-4.943 2.226-4.943 4.962s2.217 4.962 4.943 4.962c2.511 0 4.59-1.889 4.902-4.326h5.324c-0.328 5.379-4.789 9.653-10.225 9.653-5.649 0-10.245-4.615-10.245-10.289s4.596-10.289 10.245-10.289c5.382 0 9.808 4.189 10.214 9.492h-5.337zM15.040 15.737h3.456c-0.299 1.644-1.735 2.894-3.456 2.894-1.938 0-3.514-1.583-3.514-3.529s1.576-3.529 3.514-3.529c1.664 0 3.062 1.168 3.423 2.732h-3.423c-0.395 0-0.714 0.32-0.714 0.716s0.32 0.716 0.714 0.716zM34.070 15.329l0.655 1.377h-3.556l-0.905-1.685 0.905-1.685h3.556l-0.655 1.377c-0.044 0.090-0.070 0.196-0.070 0.309s0.026 0.218 0.072 0.313l-0.002-0.004z"></path>
</symbol>
<symbol id="icon-bag" viewBox="0 0 37 32">
<path fill="#212121" style="fill: var(--color1, #212121)" d="M9.809 1.811v4.727h3.296v-3.257h10.512v3.256h3.295v-4.727c-0.003-1-0.814-1.81-1.815-1.81-0.001 0-0.003 0-0.004 0h-13.464c-0.001 0-0.003 0-0.004 0-1.001 0-1.813 0.811-1.815 1.811v0z"></path>
<path fill="#ad2312" style="fill: var(--color4, #ad2312)" d="M33.251 5.825h-29.78c-1.914 0-3.471 1.547-3.471 3.449v19.274c0 1.903 1.556 3.452 3.468 3.452h29.786c1.912 0 3.468-1.549 3.468-3.452v-19.274c0-1.902-1.557-3.449-3.471-3.449zM35.287 28.549c0 1.117-0.913 2.026-2.034 2.026h-29.785c-1.122 0-2.034-0.909-2.034-2.026v-9.008c0.999 1.081 2.425 1.756 4.008 1.756 0.002 0 0.004 0 0.006 0h2.107c0.396 0 0.717-0.319 0.717-0.713s-0.321-0.712-0.717-0.712h-2.107c-2.213 0-4.013-1.789-4.013-3.988v-6.61c0-1.116 0.913-2.023 2.035-2.023h29.781c1.123 0 2.035 0.908 2.035 2.023v6.61c0 2.199-1.8 3.988-4.013 3.988h-2.513c-0.397 0-0.718 0.319-0.718 0.712s0.321 0.713 0.717 0.713h2.513c0.001 0 0.003 0 0.005 0 1.584 0 3.009-0.675 4.005-1.754l0.003-0.004v9.008z"></path>
<path fill="#ad2312" style="fill: var(--color4, #ad2312)" d="M26.252 19.871h-15.693c-0.396 0-0.717 0.319-0.717 0.713s0.321 0.712 0.717 0.712h15.693c0.396 0 0.717-0.319 0.717-0.713s-0.321-0.712-0.717-0.712zM26.868 9.637h-17.015c-0.396 0-0.717 0.319-0.717 0.713s0.321 0.712 0.717 0.712h17.015c0.396 0 0.717-0.319 0.717-0.713s-0.321-0.712-0.717-0.712z"></path>
<path fill="#212121" style="fill: var(--color1, #212121)" d="M25.419 16.849h4.366v6.758h-4.366v-6.758zM6.936 16.849h4.366v6.758h-4.366v-6.758z"></path>
</symbol>
</defs>
</svg>
