<svg aria-hidden="true" style="position: absolute; width: 0; height: 0; overflow: hidden;" version="1.1" xmlns="http://www.w3.org/2000/svg" xmlns:xlink="http://www.w3.org/1999/xlink">
<defs>
<symbol id="icon-info" viewBox="0 0 32 32">
<path fill="#d4e2e8" style="fill: var(--color1, #d4e2e8)" d="M15.787 0c-8.744 0.122-15.785 7.239-15.785 16 0 8.837 7.164 16.001 16.001 16.001 0.076 0 0.152-0.001 0.227-0.002l-0.011 0c8.744-0.122 15.785-7.239 15.785-16 0-8.837-7.164-16.001-16.001-16.001-0.076 0-0.152 0.001-0.227 0.002l0.011-0zM17.56 5.333c1.627 0 2.107 0.944 2.107 2.021 0 1.349-1.080 2.597-2.92 2.597-1.541 0-2.275-0.776-2.232-2.056 0-1.080 0.907-2.563 3.045-2.563zM13.387 26c-1.109 0-1.925-0.675-1.147-3.64l1.275-5.261c0.221-0.843 0.259-1.181 0-1.181-0.333 0-1.776 0.584-2.629 1.157l-0.555-0.912c2.704-2.256 5.813-3.581 7.147-3.581 1.109 0 1.296 1.315 0.739 3.336l-1.459 5.531c-0.259 0.979-0.149 1.315 0.109 1.315 0.336 0 1.427-0.405 2.501-1.248l0.629 0.843c-2.627 2.629-5.496 3.643-6.608 3.643z"></path>
</symbol>
<symbol id="icon-robot-desk" viewBox="0 0 31 32">
<path fill="#f12d15" style="fill: var(--color2, #f12d15)" d="M17.201 6.537l-0.029 0.046c-0.295-0.088-0.642-0.155-0.999-0.187l-0.021-0.002-0.012-0.057c-0.091-0.425-0.507-0.697-0.927-0.606l-1.673 0.364c-0.209 0.046-0.382 0.172-0.491 0.342l-0.002 0.003c-0.079 0.121-0.125 0.269-0.125 0.429 0 0.060 0.007 0.118 0.019 0.174l-0.001-0.005 0.011 0.053c-0.323 0.185-0.601 0.382-0.86 0.602l0.008-0.006-0.047-0.031c-0.362-0.236-0.846-0.13-1.080 0.237l-0.926 1.455c-0.233 0.367-0.129 0.858 0.232 1.094l0.047 0.031c-0.086 0.299-0.152 0.65-0.183 1.011l-0.001 0.021-0.053 0.011c-0.209 0.046-0.382 0.172-0.491 0.342l-0.002 0.003c-0.079 0.121-0.125 0.269-0.125 0.429 0 0.060 0.007 0.118 0.019 0.174l-0.001-0.005 0.362 1.695c0.091 0.425 0.506 0.697 0.927 0.606l0.056-0.012c0.183 0.328 0.379 0.611 0.598 0.873l-0.007-0.009-0.029 0.046c-0.234 0.367-0.129 0.858 0.232 1.094l1.008 0.659-0.010 0.008c-0.328-0.213-0.766-0.117-0.978 0.215l-0.762 1.198c-0.212 0.332-0.118 0.776 0.21 0.991-0.061 0.219-0.11 0.48-0.136 0.747l-0.002 0.019c-0.188 0.043-0.344 0.156-0.441 0.309l-0.002 0.003c-0.071 0.11-0.114 0.244-0.114 0.388 0 0.054 0.006 0.107 0.017 0.158l-0.001-0.005 0.298 1.395c0.082 0.385 0.459 0.632 0.84 0.549 0.139 0.244 0.284 0.454 0.445 0.65l-0.007-0.008c-0.21 0.332-0.115 0.775 0.212 0.989l1.186 0.775c0.327 0.214 0.765 0.119 0.977-0.212 0.248 0.068 0.502 0.115 0.758 0.14 0.082 0.385 0.459 0.631 0.84 0.549l1.377-0.3c0.189-0.042 0.346-0.155 0.445-0.31l0.002-0.003c0.071-0.11 0.113-0.244 0.113-0.388 0-0.053-0.006-0.105-0.017-0.154l0.001 0.005c0.24-0.14 0.447-0.287 0.64-0.448l-0.007 0.006c0.328 0.213 0.766 0.117 0.978-0.215l0.762-1.197c0.211-0.332 0.117-0.777-0.21-0.991 0.067-0.251 0.113-0.507 0.137-0.766 0.188-0.043 0.343-0.156 0.441-0.309l0.002-0.003c0.103-0.161 0.137-0.354 0.097-0.541l-0.298-1.395c-0.082-0.386-0.459-0.632-0.84-0.549-0.139-0.244-0.284-0.454-0.445-0.65l0.007 0.008c0.209-0.332 0.115-0.775-0.212-0.989l-0.407-0.266c0.238-0.147 0.488-0.32 0.714-0.507l0.050 0.032c0.362 0.236 0.846 0.13 1.080-0.237l0.926-1.455c0.234-0.367 0.129-0.858-0.233-1.094l-0.047-0.031c0.093-0.337 0.155-0.682 0.185-1.032l0.053-0.011c0.209-0.046 0.382-0.172 0.491-0.342l0.002-0.003c0.113-0.178 0.151-0.39 0.107-0.597l-0.362-1.695c-0.091-0.425-0.507-0.697-0.927-0.605l-0.056 0.012c-0.183-0.328-0.379-0.611-0.598-0.873l0.007 0.009 0.029-0.046c0.234-0.367 0.129-0.858-0.233-1.094l-1.441-0.942c-0.362-0.236-0.846-0.13-1.080 0.237zM18.518 17.689l-0.134 0.211c-0.091 0.143-0.075 0.331 0.040 0.456 0.251 0.271 0.465 0.581 0.633 0.919l0.010 0.023c0.061 0.123 0.185 0.207 0.33 0.207 0.027 0 0.054-0.003 0.079-0.009l-0.002 0 0.243-0.053 0.287 1.342-0.242 0.053c-0.164 0.038-0.285 0.18-0.29 0.351v0.001c-0.014 0.407-0.086 0.791-0.21 1.153l0.008-0.028c-0.054 0.162 0.008 0.34 0.149 0.432l0.209 0.136-0.734 1.152-0.209-0.137c-0.056-0.037-0.125-0.060-0.199-0.060-0.097 0-0.186 0.038-0.251 0.1l0-0c-0.267 0.253-0.573 0.47-0.907 0.64l-0.022 0.010c-0.123 0.063-0.205 0.189-0.205 0.334 0 0.028 0.003 0.055 0.009 0.082l-0-0.003 0.052 0.245-1.324 0.288-0.053-0.247c-0.035-0.164-0.176-0.286-0.346-0.293l-0.001-0c-0.402-0.015-0.783-0.089-1.139-0.214l0.027 0.008c-0.035-0.012-0.076-0.020-0.118-0.020-0.129 0-0.243 0.067-0.308 0.169l-0.001 0.001-0.134 0.211-1.14-0.745 0.134-0.211c0.091-0.143 0.075-0.331-0.040-0.456-0.251-0.271-0.465-0.581-0.633-0.919l-0.010-0.023c-0.061-0.123-0.185-0.207-0.33-0.207-0.027 0-0.054 0.003-0.079 0.009l0.002-0-0.244 0.053-0.287-1.342 0.242-0.053c0.164-0.038 0.285-0.18 0.29-0.351v-0.001c0.014-0.407 0.086-0.792 0.21-1.153l-0.008 0.028c0.054-0.162-0.007-0.34-0.149-0.432l-0.209-0.136 0.734-1.152 0.209 0.137c0.056 0.037 0.125 0.059 0.199 0.059 0.097 0 0.186-0.038 0.251-0.1l-0 0c0.267-0.253 0.573-0.47 0.907-0.64l0.022-0.010c0.123-0.063 0.205-0.189 0.205-0.334 0-0.028-0.003-0.055-0.009-0.082l0 0.003-0.052-0.245 1.324-0.288 0.053 0.247c0.035 0.164 0.176 0.286 0.346 0.293l0.001 0c0.379 0.013 0.753 0.082 1.112 0.206 0.035 0.012 0.076 0.020 0.118 0.020 0.129 0 0.243-0.067 0.308-0.169l0.001-0.001 0.134-0.211 1.14 0.745zM19.322 7.868c0.013 0.009 0.021 0.023 0.021 0.039 0 0.009-0.003 0.018-0.008 0.026l0-0-0.181 0.284c-0.091 0.143-0.075 0.331 0.040 0.456 0.31 0.335 0.575 0.718 0.782 1.135l0.013 0.028c0.061 0.123 0.185 0.207 0.33 0.207 0.027 0 0.054-0.003 0.079-0.009l-0.002 0 0.329-0.072c0.003-0.001 0.006-0.001 0.009-0.001 0.022 0 0.040 0.015 0.044 0.036l0 0 0.362 1.695c0.001 0.003 0.001 0.006 0.001 0.010 0 0.023-0.016 0.041-0.037 0.046l-0 0-0.326 0.071c-0.164 0.038-0.285 0.18-0.29 0.351v0.001c-0.017 0.502-0.106 0.978-0.259 1.424l0.010-0.034c-0.054 0.162 0.008 0.34 0.149 0.432l0.281 0.184c0.021 0.014 0.027 0.043 0.013 0.065l-0.926 1.455c-0.008 0.013-0.023 0.022-0.039 0.022-0.009 0-0.018-0.003-0.025-0.007l0 0-0.282-0.184c-0.056-0.037-0.125-0.059-0.199-0.059-0.097 0-0.186 0.038-0.251 0.1l0-0c-0.279 0.264-0.708 0.563-1.126 0.79l-0.083-0.055c-0.327-0.214-0.765-0.119-0.977 0.212-0.217-0.062-0.474-0.112-0.739-0.139l-0.019-0.002c-0.082-0.385-0.459-0.631-0.84-0.549l-1.377 0.3c-0.189 0.042-0.346 0.155-0.445 0.31l-0.002 0.003c-0.071 0.11-0.113 0.244-0.113 0.388 0 0.035 0.002 0.069 0.007 0.103l-0-0.004-1.224-0.8c-0.013-0.009-0.021-0.023-0.021-0.039 0-0.009 0.003-0.018 0.008-0.026l-0 0 0.181-0.284c0.091-0.143 0.075-0.331-0.040-0.456-0.31-0.335-0.575-0.718-0.782-1.135l-0.013-0.028c-0.061-0.123-0.185-0.207-0.33-0.207-0.027 0-0.054 0.003-0.079 0.009l0.002-0-0.329 0.072c-0.003 0.001-0.006 0.001-0.009 0.001-0.022 0-0.040-0.015-0.044-0.036l-0-0-0.362-1.695c-0.001-0.003-0.001-0.006-0.001-0.010 0-0.023 0.016-0.041 0.037-0.047l0-0 0.326-0.071c0.164-0.037 0.285-0.18 0.29-0.351v-0.001c0.017-0.502 0.106-0.978 0.259-1.424l-0.010 0.034c0.054-0.162-0.008-0.34-0.149-0.432l-0.282-0.184c-0.013-0.009-0.021-0.023-0.021-0.039 0-0.010 0.003-0.018 0.008-0.026l-0 0 0.926-1.455c0.008-0.013 0.023-0.022 0.039-0.022 0.009 0 0.018 0.003 0.025 0.007l-0-0 0.281 0.184c0.056 0.037 0.125 0.059 0.199 0.059 0.097 0 0.186-0.038 0.251-0.1l-0 0c0.33-0.313 0.708-0.581 1.12-0.79l0.027-0.013c0.123-0.063 0.205-0.189 0.205-0.334 0-0.028-0.003-0.055-0.009-0.082l0 0.003-0.071-0.33c-0.001-0.003-0.001-0.006-0.001-0.010 0-0.023 0.016-0.041 0.037-0.047l0-0 1.673-0.364c0.003-0.001 0.006-0.001 0.009-0.001 0.022 0 0.040 0.015 0.044 0.036l0 0 0.071 0.333c0.035 0.164 0.176 0.286 0.346 0.293l0.001 0c0.469 0.016 0.93 0.102 1.373 0.254 0.035 0.012 0.076 0.020 0.118 0.020 0.129 0 0.243-0.067 0.308-0.169l0.001-0.001 0.18-0.284c0.008-0.013 0.023-0.022 0.039-0.022 0.009 0 0.018 0.003 0.025 0.007l-0-0 1.441 0.942z"></path>
<path fill="#f12d15" style="fill: var(--color2, #f12d15)" d="M12.913 10.171c-0.993 1.54-0.547 3.602 0.995 4.596s3.604 0.551 4.598-0.989c0.993-1.54 0.547-3.602-0.995-4.596s-3.604-0.551-4.598 0.989zM17.884 13.377c-0.772 1.197-2.376 1.541-3.575 0.768s-1.546-2.377-0.774-3.573c0.772-1.197 2.376-1.541 3.575-0.768s1.546 2.376 0.774 3.573z"></path>
<path fill="#ad2312" style="fill: var(--color3, #ad2312)" d="M17.654 22.286c0.728-1.128 0.402-2.634-0.728-3.362s-2.636-0.405-3.364 0.723c-0.728 1.128-0.402 2.634 0.728 3.362s2.636 0.405 3.364-0.723z"></path>
</symbol>
<symbol id="icon-graphic-desk" viewBox="0 0 19 32">
<path fill="#ad2312" style="fill: var(--color3, #ad2312)" d="M5.841 11.175h3.048v20.064h-3.048v-20.064zM14.984 8.127h3.048v23.111h-3.048v-23.111z"></path>
<path fill="#f12d15" style="fill: var(--color2, #f12d15)" d="M18.926 30.781h-5.128v-13.409c0-0.337-0.169-0.61-0.377-0.61h-3.017c-0.208 0-0.377 0.273-0.377 0.61v13.41h-5.279v-9.507c0-0.337-0.169-0.61-0.377-0.61h-3.016c-0.208 0-0.377 0.273-0.377 0.61v9.507h-0.603c-0.5 0.032-0.5 1.187 0 1.219h18.551c0.5-0.032 0.5-1.188 0-1.219zM10.782 17.981h2.262v12.8h-2.262v-12.8zM1.733 21.883h2.262v8.897h-2.262v-8.897zM18.925 0h-1.508c-0.5 0.021-0.5 0.787 0 0.808h0.598l-6.586 7.054-4.168-4.465c-0.066-0.072-0.161-0.117-0.267-0.117s-0.2 0.045-0.266 0.117l-0 0-6.617 7.088c-0.147 0.157-0.147 0.413 0 0.571s0.386 0.158 0.533 0l6.35-6.802 4.168 4.465c0.147 0.157 0.386 0.157 0.533 0l6.852-7.34v0.64c0.020 0.536 0.734 0.535 0.754 0v-1.615c0-0.223-0.169-0.404-0.377-0.404z"></path>
</symbol>
<symbol id="icon-head-desk" viewBox="0 0 17 32">
<path fill="#f12d15" style="fill: var(--color2, #f12d15)" d="M7.197 3.063h0.512v3.408c0 0.187 0.152 0.339 0.339 0.339h1.363c0.187 0 0.339-0.152 0.339-0.339v-3.408h0.512c0.268 0 0.43-0.297 0.286-0.523l-1.533-2.385c-0.061-0.094-0.166-0.156-0.286-0.156s-0.224 0.061-0.285 0.154l-0.001 0.001-1.533 2.385c-0.145 0.225 0.017 0.523 0.286 0.523zM8.73 0.967l0.912 1.418h-0.23c-0.187 0-0.339 0.152-0.339 0.339v3.408h-0.684v-3.408c0-0.187-0.152-0.339-0.339-0.339h-0.23l0.912-1.418zM2.397 9.006h0.512v2.727c0 0.187 0.152 0.339 0.339 0.339h1.363c0.187 0 0.339-0.152 0.339-0.339v-2.727h0.512c0.268 0 0.43-0.297 0.285-0.523l-1.533-2.385c-0.061-0.094-0.166-0.156-0.285-0.156s-0.224 0.061-0.285 0.154l-0.001 0.001-1.533 2.385c-0.145 0.225 0.017 0.523 0.285 0.523zM3.93 6.91l0.912 1.418h-0.23c-0.187 0-0.339 0.152-0.339 0.339v2.727h-0.684v-2.727c0-0.187-0.152-0.339-0.339-0.339h-0.23l0.912-1.418zM11.997 5.806h0.512v2.727c0 0.187 0.152 0.339 0.339 0.339h1.363c0.187 0 0.339-0.152 0.339-0.339v-2.727h0.512c0.268 0 0.43-0.297 0.286-0.523l-1.533-2.385c-0.061-0.094-0.166-0.156-0.286-0.156s-0.224 0.062-0.285 0.155l-0.001 0.001-1.533 2.385c-0.145 0.226 0.017 0.523 0.286 0.523zM13.53 3.709l0.912 1.418h-0.23c-0.187 0-0.339 0.152-0.339 0.339v2.727h-0.684v-2.727c0-0.187-0.152-0.339-0.339-0.339h-0.23l0.912-1.418z"></path>
<path fill="#ad2312" style="fill: var(--color3, #ad2312)" d="M8.586 22.995c2.047-0.275 3.483-2.157 3.209-4.203s-2.157-3.483-4.203-3.209c-2.047 0.275-3.483 2.157-3.209 4.203s2.157 3.484 4.203 3.209z"></path>
<path fill="#fff" style="fill: var(--color4, #fff)" d="M8.525 18.939c-0.29-0.103-0.611-0.226-0.79-0.367-0.052-0.041-0.074-0.136-0.055-0.237 0.010-0.051 0.055-0.222 0.228-0.274 0.313-0.094 0.557 0.078 0.586 0.099 0.058 0.049 0.134 0.079 0.217 0.079 0.187 0 0.339-0.152 0.339-0.339 0-0.097-0.041-0.184-0.106-0.246l-0-0c-0.087-0.082-0.283-0.198-0.517-0.256v-0.145c0-0.187-0.152-0.339-0.339-0.339s-0.339 0.152-0.339 0.339v0 0.15c-0.801 0.217-0.994 1.264-0.432 1.705 0.206 0.162 0.491 0.299 0.982 0.472 0.314 0.111 0.307 0.364 0.289 0.468-0.036 0.212-0.214 0.441-0.522 0.443-0.312 0.003-0.401-0.012-0.638-0.167-0.052-0.035-0.117-0.055-0.186-0.055-0.187 0-0.339 0.152-0.339 0.339 0 0.118 0.061 0.222 0.152 0.283l0.001 0.001c0.263 0.172 0.456 0.241 0.692 0.265v0.176c0 0.187 0.152 0.339 0.339 0.339s0.339-0.152 0.339-0.339v0-0.218c0.465-0.144 0.762-0.552 0.83-0.955 0.091-0.542-0.203-1.033-0.733-1.22z"></path>
<path fill="#f12d15" style="fill: var(--color2, #f12d15)" d="M15.953 25.96l-1.518-2.962c0.22-0.873 0.324-2.472 0.331-3.192 0.041-4.278-3.061-7.768-6.833-7.69-3.819 0.078-6.91 3.781-6.532 8.269 0.104 1.239 0.331 1.858 0.889 4.455 0.29 1.33 0.456 2.858 0.456 4.425 0 0.001 0 0.002 0 0.003v-0 2.344c0 0.214 0.153 0.388 0.342 0.388l8.114-0.003c0.253 0 0.458-0.233 0.458-0.52v-2.205h0.782c0.705 0 1.279-0.698 1.279-1.556v-1.172l1.934-0.001c0.264-0 0.429-0.325 0.296-0.584zM13.496 25.767c-0.253 0-0.458 0.233-0.458 0.52v1.43c0 0.43-0.266 0.779-0.593 0.779h-1.009c-0.253 0-0.458 0.233-0.458 0.52v2.206l-7.544 0.003v-1.956c0-1.55-0.16-3.101-0.475-4.61-0.476-2.29-0.765-3.065-0.873-4.347-0.341-4.047 2.451-7.349 5.862-7.419 3.366-0.069 6.173 3.046 6.135 6.905-0.008 0.872-0.142 2.48-0.341 3.12-0.012 0.038-0.020 0.083-0.020 0.128 0 0.078 0.020 0.151 0.056 0.214l-0.001-0.002 1.286 2.51-1.566 0.001z"></path>
</symbol>
</defs>
</svg>
