<svg aria-hidden="true" style="position:absolute;width:0;height:0" xmlns="http://www.w3.org/2000/svg" overflow="hidden"><defs><symbol id="icon-logo" viewBox="0 0 130 32"><path fill="var(--color1, #212121)" d="M48.669 17.086l-1.91-9.885-.024-.075h-2.594l-1.959 9.959-1.666 8.623h2.62l1.689-8.622.661-3.345.613 3.345 1.64 8.621h2.621l-1.69-8.621zm11.136-7.16V7.251h-7.787v18.556h7.787v-2.651h-5.168v-5.277h4.286v-2.675h-4.286V9.927h5.168zM70.979 7.25h-2.62v18.556h2.619V7.25zm-6.465 0h-2.62v18.556h2.62v-7.928h3.845v-2.675h-3.845V7.251zm17.862 12.363v-1.784c0-2.427-1.959-4.409-4.36-4.409h-1.689V9.901h5.387V7.225h-8.007v18.581h4.309c2.4 0 4.359-1.957 4.359-4.41v-1.759h-2.644v1.759c0 .967-.759 1.759-1.713 1.759h-1.69v-7.06h1.689c.955 0 1.714.768 1.714 1.734v1.784h2.644zm11.05 6.194V7.251h-2.643v2.725l-3.6 4.485v-7.21h-2.62v18.556h2.62v-7.135l3.6-4.46v11.595h2.644zm6.997-18.581h-4.309v18.579h2.62v-6.192h1.689c2.4 0 4.359-1.982 4.359-4.41v-3.567c0-2.428-1.959-4.409-4.359-4.409zm1.714 7.977c0 .966-.759 1.734-1.714 1.734h-1.689V9.902h1.689c.955 0 1.714.768 1.714 1.734v3.569zm17.232-7.977h-2.644l-2.89 8.77v-8.77h-2.644v8.695l-2.865-8.695h-2.62l2.914 8.893-2.914 9.687h2.62l2.865-9.489v9.489h2.644v-9.564l2.89 9.563h2.644l-2.938-9.687 2.938-8.893zm10.57 4.41c0-2.429-1.959-4.41-4.359-4.41h-.146c-2.424 0-4.359 1.981-4.359 4.409v14.171h2.62v-7.309h3.6v7.309h2.644V11.635zm-6.244 4.211v-4.21c0-.966.784-1.734 1.739-1.734h.146c.955 0 1.714.768 1.714 1.734v4.211h-3.6z"/><path fill="var(--color2, #f12d15)" d="M0 0h31.629v32H0z"/><path fill="var(--color3, #fff)" d="M12.86 12.959h-1.175l2.982-6.553c.12-.263.268-.456.441-.577s.378-.182.612-.182c.228 0 .429.061.602.182s.321.314.442.577l2.836 6.553h-1.646s-.225-.498-.338-.768l-.933-2.194h-1.947l-.923 2.194-.359.769h-.594zM15.7 7.68l-.964 2.317h1.947l-.965-2.317h-.019zm-2.782 18.901h-1.233v-5.875h4.661c1.035 0 1.849.255 2.444.763.602.509.842 1.301.842 2.238 0 .945-.239 1.602-.843 2.111-.593.508-1.408.763-2.443.763h-3.428zm.144-1.453h4.129c.563 0 1.127-.371 1.127-1.421s-.622-1.448-1.127-1.454c-.504-.006-1.411-.032-1.871-.032h-2.259v2.906zM11.685 16h7.946v1.625h-7.946z"/></symbol><symbol id="icon-robot" viewBox="0 0 53 32"><path fill="var(--color2, #f12d15)" d="M50.88 20.069l-.119-.076c.245-.848.407-1.716.486-2.596l.147-.03c1.096-.224 1.796-1.277 1.56-2.349l-.939-4.27a2.005 2.005 0 00-.881-1.257l-.008-.005a2.056 2.056 0 00-1.552-.282l.014-.002-.138.028a14.166 14.166 0 00-1.552-2.2l.016.019.08-.12c.609-.917.336-2.154-.609-2.756l-3.748-2.387c-.945-.602-2.21-.345-2.819.572l-.08.12a14.109 14.109 0 00-2.6-.486l-.059-.004-.03-.135a2.008 2.008 0 00-.881-1.257L37.16.591a2.056 2.056 0 00-1.552-.282l.014-.002-4.366.891c-1.096.224-1.796 1.277-1.56 2.349l.032.143c-.79.427-1.535.925-2.227 1.488l-.119-.076c-.945-.602-2.21-.346-2.819.572l-1.698 2.557-.021-.025c.55-.832.302-1.95-.554-2.495l-3.085-1.965c-.857-.545-2.001-.314-2.554.516a11.627 11.627 0 00-1.921-.36l-.053-.005a1.822 1.822 0 00-.797-1.131l-.007-.004a1.862 1.862 0 00-1.407-.255l.012-.002-3.594.734c-.994.203-1.627 1.158-1.415 2.129-.63.351-1.17.717-1.677 1.123l.024-.018c-.856-.54-1.998-.306-2.549.522l-1.996 3.006c-.55.829-.305 1.946.546 2.493a10.81 10.81 0 00-.357 1.88l-.004.049c-.993.204-1.627 1.159-1.413 2.13l.772 3.515c.104.473.39.878.806 1.143.413.264.905.355 1.386.26.362.614.738 1.143 1.155 1.637l-.015-.018c-.55.831-.301 1.95.555 2.495l3.085 1.965c.855.545 2 .314 2.553-.516.646.175 1.306.297 1.974.364.111.481.402.88.797 1.131l.007.004c.416.265.911.356 1.395.258l3.594-.733c.994-.203 1.628-1.157 1.415-2.129a11.91 11.91 0 001.677-1.123l-.024.018c.857.54 1.998.307 2.549-.523l.686-1.033c.432.695.863 1.292 1.33 1.858l-.023-.028-.084.125c-.609.918-.335 2.154.61 2.756l3.747 2.387c.945.602 2.21.345 2.819-.572l.08-.12c.869.244 1.758.408 2.66.49l.029.134c.121.535.443.978.881 1.257l.008.005a2.076 2.076 0 001.538.285l4.366-.891c1.096-.224 1.796-1.277 1.56-2.35l-.031-.143a14.353 14.353 0 002.227-1.488l.119.076c.945.602 2.21.345 2.819-.572l2.425-3.652c.609-.918.336-2.154-.609-2.756zm-28.732 3.147l-.543-.346a.972.972 0 00-1.176.096l.001-.001a10.042 10.042 0 01-2.366 1.595l-.06.026a.923.923 0 00-.511 1.038l-.001-.006.137.621-3.457.705-.136-.617a.961.961 0 00-.906-.746 10.364 10.364 0 01-2.971-.556l.073.022a.965.965 0 00-1.111.369l-.002.003-.351.529-2.969-1.89.351-.529a.916.916 0 00-.105-1.147 9.975 9.975 0 01-1.648-2.322l-.026-.056a.976.976 0 00-1.069-.508l.006-.001-.632.129-.743-3.38.635-.13a.935.935 0 00.755-.875v-.002a9.608 9.608 0 01.551-2.896l-.021.067a.931.931 0 00-.385-1.088l-.004-.002-.543-.346 1.92-2.89.543.346a.976.976 0 001.175-.094 10.062 10.062 0 012.366-1.595l.06-.026a.926.926 0 00.511-1.039l.001.006-.136-.621 3.457-.705.136.618c.099.42.465.731.905.745h.002c.989.04 1.964.219 2.899.534a.967.967 0 001.113-.371l.352-.53 2.968 1.891-.352.53a.917.917 0 00.105 1.147 9.975 9.975 0 011.648 2.322l.026.056a.975.975 0 001.069.508l-.006.001.633-.129.743 3.38-.635.13a.937.937 0 00-.756.875v.002a9.639 9.639 0 01-.55 2.896l.021-.067a.929.929 0 00.389 1.09l.543.346-1.919 2.89zm25.305 2.234a.12.12 0 01-.1.052.118.118 0 01-.067-.02l-.73-.465a.969.969 0 00-1.175.094l.001-.001a12.409 12.409 0 01-2.923 1.97l-.074.032a.923.923 0 00-.511 1.038l-.001-.006.184.838c.002.007.002.015.002.024 0 .056-.04.102-.093.113h-.001l-4.365.891a.125.125 0 01-.146-.091v-.001l-.182-.831a.962.962 0 00-.906-.746 12.797 12.797 0 01-3.671-.687l.09.027a.965.965 0 00-1.111.369l-.002.003-.474.714a.12.12 0 01-.1.052.118.118 0 01-.067-.02l-3.748-2.387a.117.117 0 01-.037-.163l.474-.713a.916.916 0 00-.105-1.147c-.68-.716-1.452-1.814-2.035-2.884l.14-.211c.551-.829.306-1.946-.546-2.493.175-.631.296-1.276.36-1.929.994-.203 1.628-1.158 1.414-2.13l-.773-3.515a1.821 1.821 0 00-.799-1.139l-.007-.004a1.863 1.863 0 00-1.265-.28l.01-.001L26.175 6.7a.12.12 0 01.1-.052c.025 0 .048.007.067.02l.73.465a.974.974 0 001.175-.094 12.423 12.423 0 012.922-1.97l.074-.032a.924.924 0 00.512-1.039l.001.006-.184-.838c-.002-.007-.002-.015-.002-.024 0-.056.04-.102.092-.113h.001l4.366-.891a.125.125 0 01.146.091v.001l.182.831a.963.963 0 00.906.746c1.222.049 2.426.27 3.581.659a.966.966 0 001.113-.372l.474-.713a.12.12 0 01.1-.052c.025 0 .048.007.067.02l3.748 2.387a.117.117 0 01.056.099.114.114 0 01-.019.063l-.474.714a.916.916 0 00.105 1.147 12.322 12.322 0 012.035 2.868l.032.069a.975.975 0 001.069.508l-.006.001.85-.174c.007-.002.016-.002.024-.002.058 0 .107.04.121.094v.001l.938 4.27a.116.116 0 01-.09.136h-.001l-.857.175a.935.935 0 00-.755.875v.002a11.913 11.913 0 01-.68 3.578l.026-.083a.928.928 0 00.385 1.088l.004.002.73.465a.117.117 0 01.037.164l-2.425 3.652z"/><path fill="var(--color2, #f12d15)" d="M37.197 7.474c-4.732 0-8.581 3.794-8.581 8.457s3.849 8.457 8.581 8.457 8.581-3.794 8.581-8.457-3.85-8.457-8.581-8.457zm0 15.035c-3.678 0-6.671-2.951-6.671-6.577s2.992-6.577 6.671-6.577c3.678 0 6.671 2.95 6.671 6.577s-2.992 6.577-6.671 6.577z"/><path fill="var(--color4, #ad2312)" d="M13.539 21.89c3.467 0 6.278-2.77 6.278-6.188s-2.811-6.188-6.278-6.188-6.278 2.77-6.278 6.188 2.811 6.188 6.278 6.188z"/></symbol><symbol id="icon-graphic" viewBox="0 0 29 32"><path fill="var(--color4, #ad2312)" d="M8.762 13.39h4.571v17.929H8.762V13.39zm13.714-2.723h4.571V31.32h-4.571V10.667z"/><path fill="var(--color2, #f12d15)" d="M28.39 30.903h-7.692V18.834a.557.557 0 00-.565-.549h-4.525a.557.557 0 00-.565.549v12.069H7.125v-8.557a.558.558 0 00-.566-.549H2.035a.558.558 0 00-.566.549v8.556H.564a.55.55 0 000 1.098h27.827a.549.549 0 000-1.097zm-12.217-11.52h3.394v11.52h-3.394v-11.52zM2.599 22.895h3.394v8.008H2.599v-8.008zM28.387 0h-2.262c-.75.027-.75.974 0 1h.897l-9.879 8.734-6.252-5.528a.623.623 0 00-.8 0L.166 12.982c-.221.195-.221.512 0 .707s.579.195.8 0l9.526-8.422 6.252 5.528a.62.62 0 00.8 0l10.278-9.087V2.5c.03.664 1.101.663 1.131 0v-2c0-.276-.253-.5-.565-.5z"/></symbol><symbol id="icon-head" viewBox="0 0 20 32"><path fill="var(--color2, #f12d15)" d="M7.92 2.565h.477v2.854c0 .157.141.284.316.284h1.268c.174 0 .316-.127.316-.284V2.565h.476c.249 0 .4-.249.265-.438L9.612.13a.336.336 0 00-.531 0L7.654 2.127c-.135.189.016.438.266.438zM9.347.809l.848 1.187h-.214c-.174 0-.316.127-.316.284v2.854h-.637V2.281c0-.157-.141-.284-.316-.284h-.214L9.346.809zM1.9 4.434h.477v2.537c0 .174.141.316.316.316h1.268a.316.316 0 00.316-.316V4.434h.477a.316.316 0 00.264-.488l.001.001-1.426-2.219a.316.316 0 00-.53-.001l-.001.001-1.427 2.219a.316.316 0 00.266.486zm1.427-1.95l.848 1.319h-.214a.316.316 0 00-.316.316v2.537h-.637V4.119a.316.316 0 00-.316-.316h-.214l.848-1.32zm9.346 2.584h.477v2.537c0 .174.141.316.316.316h1.268a.316.316 0 00.316-.316V5.068h.477a.316.316 0 00.264-.488l.001.001-1.426-2.219a.316.316 0 00-.53-.001l-.001.001-1.427 2.219a.316.316 0 00.266.486zm1.426-1.951l.848 1.319h-.214a.316.316 0 00-.316.316v2.537h-.636V4.752a.316.316 0 00-.316-.316h-.214l.848-1.32z"/><path fill="var(--color4, #ad2312)" d="M10.001 22.053a5.184 5.184 0 10-1.38-10.276 5.184 5.184 0 001.38 10.276z"/><path fill="var(--color3, #fff)" d="M9.916 16.431c-.402-.143-.847-.314-1.094-.508-.072-.056-.102-.188-.076-.329.013-.071.076-.307.316-.38a.957.957 0 01.812.137.47.47 0 00.624-.702c-.12-.114-.393-.274-.716-.355v-.201a.47.47 0 00-.94 0v.208c-1.11.301-1.378 1.752-.599 2.363.286.224.681.414 1.361.655a.553.553 0 01.401.648.729.729 0 01-.723.615c-.432.003-.556-.017-.884-.231a.47.47 0 00-.517.785l.002.001c.364.238.632.334.96.368v.245a.47.47 0 10.94 0v-.303a1.696 1.696 0 001.15-1.324c.126-.752-.282-1.431-1.015-1.691z"/><path fill="var(--color2, #f12d15)" d="M20.212 24.686l-2.103-3.587c.305-1.057.449-2.993.459-3.865.057-5.18-4.243-9.406-9.471-9.312C3.803 8.017-.481 12.5.043 17.935c.144 1.5.459 2.25 1.232 5.395.401 1.61.632 3.459.632 5.361v2.839c0 .259.212.47.474.47l11.248-.003c.35 0 .635-.282.635-.629v-2.671h1.084c.977 0 1.772-.845 1.772-1.884v-1.419l2.681-.002a.47.47 0 00.41-.707zm-3.406-.233h-.002a.633.633 0 00-.633.629v1.731c0 .52-.369.944-.822.944H13.95a.633.633 0 00-.635.629v2.671l-10.458.003v-2.368c0-1.877-.222-3.755-.659-5.582-.66-2.773-1.06-3.711-1.21-5.264-.472-4.9 3.397-8.899 8.126-8.983 4.666-.083 8.556 3.688 8.504 8.361-.011 1.055-.197 3.003-.473 3.778a.468.468 0 00.05.413l-.001-.002 1.782 3.039-2.171.001z"/></symbol><symbol id="icon-rocket" viewBox="0 0 19 32"><path fill="var(--color1, #212121)" d="M9.6 18.207c2.272 0 4.13-1.852 4.149-4.138s-1.808-4.138-4.08-4.138c-2.272 0-4.13 1.853-4.149 4.138s1.807 4.138 4.08 4.138z"/><path fill="var(--color4, #ad2312)" d="M18.864 20.271l-2.479-1.283c.355-2.113.63-4.289.63-5.952 0-4.678-1.929-7.95-3.547-9.87C11.714 1.086 9.967.116 9.893.075a.601.601 0 00-.589.002l.003-.002c-.074.04-1.821 1.01-3.575 3.092-1.618 1.92-3.547 5.191-3.547 9.87 0 1.663.275 3.838.63 5.951l-2.48 1.283a.627.627 0 00-.324.676l-.001-.004 1.38 7.419a.62.62 0 00.606.508.603.603 0 00.345-.107l-.002.001 2.751-1.866h1.568a3.104 3.104 0 00-.069.647c0 1.519 2.142 3.819 2.571 4.265a.61.61 0 00.882.001c.429-.446 2.57-2.746 2.57-4.265 0-.219-.023-.436-.068-.647h1.567l2.751 1.866a.606.606 0 00.585.056l-.004.002a.621.621 0 00.367-.461l1.38-7.419a.627.627 0 00-.322-.67l-.003-.002zM6.637 4.017A13.743 13.743 0 019.6 1.355c.544.352 1.761 1.225 2.963 2.662.322.382.64.804.934 1.244l.033.052H5.671c.327-.491.644-.914.984-1.317l-.018.022zm-1.7 2.546h9.327c1.009 1.952 1.519 4.119 1.519 6.473 0 3.821-1.58 10.748-2.023 12.613H5.441c-.443-1.865-2.023-8.791-2.023-12.614 0-2.354.51-4.521 1.519-6.473zm-3.63 14.608l1.735-.897c.484 2.659.903 4.58 1.369 6.483l-.163-.79-1.819 1.234-1.121-6.03zm10.072 6.376c0 .634-.933 1.942-1.779 2.91-.846-.967-1.779-2.276-1.779-2.91 0-.223.04-.442.118-.647h3.322c.075.192.118.414.118.646v.001zm5.392-.346l-1.819-1.234c.302-1.112.721-3.033 1.091-4.971l.115-.721 1.734.898-1.121 6.029z"/><path fill="var(--color3, #fff)" d="M9.6 16.071c1.085 0 1.968-.896 1.968-1.996s-.883-1.996-1.968-1.996-1.968.896-1.968 1.996.883 1.996 1.968 1.996zm0-2.742c.405 0 .736.335.736.746s-.331.746-.736.746a.742.742 0 01-.736-.741v-.005c0-.411.33-.746.736-.746z"/></symbol><symbol id="icon-mishen" viewBox="0 0 37 32"><path fill="var(--color1, #212121)" d="M15.04 7.476c-4.187 0-7.594 3.421-7.594 7.625s3.406 7.626 7.593 7.626c4.187 0 7.594-3.421 7.594-7.626s-3.407-7.626-7.594-7.626zm0 11.871c-2.335 0-4.228-1.901-4.228-4.245s1.893-4.246 4.228-4.246 4.228 1.901 4.228 4.246-1.893 4.245-4.228 4.245z"/><path fill="var(--color4, #ad2312)" d="M35.506 15.021l.996-2.094a.712.712 0 00-.043-.693l.002.003a.714.714 0 00-.604-.334h-5.114a.714.714 0 00-.629.377l-.225.42C28.74 5.511 22.519.001 15.041.001 6.748.001.001 6.776.001 15.103a15.125 15.125 0 007.677 13.166l-2.5 2.51a.717.717 0 00.001 1.013.71.71 0 001.011-.001l2.836-2.848c1.766.797 3.829 1.261 6 1.261h.016-.001.015c2.171 0 4.234-.464 6.095-1.299l-.094.038 2.836 2.848a.71.71 0 001.01 0 .717.717 0 000-1.012l-2.5-2.511a15.134 15.134 0 007.506-10.888l.206.384a.715.715 0 00.629.377h5.114c.245 0 .473-.126.604-.334s.146-.469.041-.691l-.997-2.094zM15.04 28.77c-7.505 0-13.611-6.132-13.611-13.669S7.535 1.432 15.04 1.432c7.238 0 13.175 5.704 13.588 12.871h-1.941C26.278 8.21 21.21 3.379 15.041 3.379 8.604 3.379 3.367 8.637 3.367 15.1s5.237 11.722 11.674 11.722c6.224 0 11.327-4.917 11.657-11.086h1.939c-.331 7.243-6.303 13.033-13.596 13.033zm4.878-14.466c-.381-2.359-2.423-4.165-4.878-4.165-2.726 0-4.943 2.226-4.943 4.962s2.217 4.962 4.943 4.962c2.511 0 4.59-1.889 4.902-4.326h5.324c-.328 5.379-4.789 9.653-10.225 9.653-5.649 0-10.245-4.615-10.245-10.289S9.392 4.812 15.041 4.812c5.382 0 9.808 4.189 10.214 9.492h-5.337zm-4.878 1.433h3.456a3.524 3.524 0 01-3.456 2.894c-1.938 0-3.514-1.583-3.514-3.529s1.576-3.529 3.514-3.529a3.523 3.523 0 013.423 2.732H15.04c-.395 0-.714.32-.714.716s.32.716.714.716zm19.03-.408l.655 1.377h-3.556l-.905-1.685.905-1.685h3.556l-.655 1.377a.706.706 0 00.002.622l-.002-.004z"/></symbol><symbol id="icon-bag" viewBox="0 0 37 32"><path fill="var(--color1, #212121)" d="M9.809 1.811v4.727h3.296V3.281h10.512v3.256h3.295V1.81C26.909.81 26.098 0 25.097 0H11.625A1.815 1.815 0 009.81 1.811z"/><path fill="var(--color4, #ad2312)" d="M33.251 5.825H3.471C1.557 5.825 0 7.372 0 9.274v19.274C0 30.451 1.556 32 3.468 32h29.786c1.912 0 3.468-1.549 3.468-3.452V9.274c0-1.902-1.557-3.449-3.471-3.449zm2.036 22.724a2.033 2.033 0 01-2.034 2.026H3.468a2.032 2.032 0 01-2.034-2.026v-9.008a5.44 5.44 0 004.008 1.756h2.113c.396 0 .717-.319.717-.713s-.321-.712-.717-.712H5.448c-2.213 0-4.013-1.789-4.013-3.988v-6.61c0-1.116.913-2.023 2.035-2.023h29.781c1.123 0 2.035.908 2.035 2.023v6.61c0 2.199-1.8 3.988-4.013 3.988H28.76c-.397 0-.718.319-.718.712s.321.713.717.713h2.518a5.433 5.433 0 004.005-1.754l.003-.004v9.008z"/><path fill="var(--color4, #ad2312)" d="M26.252 19.871H10.559c-.396 0-.717.319-.717.713s.321.712.717.712h15.693c.396 0 .717-.319.717-.713s-.321-.712-.717-.712zm.616-10.234H9.853c-.396 0-.717.319-.717.713s.321.712.717.712h17.015c.396 0 .717-.319.717-.713s-.321-.712-.717-.712z"/><path fill="var(--color1, #212121)" d="M25.419 16.849h4.366v6.758h-4.366v-6.758zm-18.483 0h4.366v6.758H6.936v-6.758z"/></symbol></defs></svg>