<svg width="134" height="33" fill="none" xmlns="http://www.w3.org/2000/svg"><path d="M50.19 17.62 48.22 7.426l-.025-.077H45.52l-2.02 10.27-1.718 8.892h2.702l1.742-8.891.682-3.45.632 3.45 1.691 8.89h2.703l-1.743-8.89ZM61.674 10.236V7.477h-8.03V26.613h8.03v-2.734h-5.329v-5.442h4.42v-2.759h-4.42v-5.442h5.329ZM73.197 7.477h-2.702v19.136h2.701V7.477Zm-6.667 0h-2.702v19.136h2.702v-8.176h3.965v-2.759H66.53v-8.2ZM84.95 20.226v-1.84c0-2.503-2.02-4.547-4.496-4.547h-1.742V10.21h5.555V7.45H76.01v19.162h4.444c2.475 0 4.495-2.018 4.495-4.548v-1.814h-2.727v1.814c0 .997-.783 1.814-1.767 1.814h-1.743v-7.281h1.742c.985 0 1.768.792 1.768 1.788v1.84h2.727ZM96.346 26.613V7.477H93.62v2.81l-3.712 4.625V7.477h-2.702v19.136h2.702v-7.358l3.712-4.599v11.957h2.727ZM103.561 7.452h-4.444v19.16h2.702v-6.386h1.742c2.475 0 4.495-2.044 4.495-4.548V12c0-2.504-2.02-4.547-4.495-4.547Zm1.768 8.226c0 .996-.783 1.788-1.768 1.788h-1.742v-7.255h1.742c.985 0 1.768.792 1.768 1.788v3.68ZM123.099 7.452h-2.727l-2.98 9.044V7.452h-2.727v8.967l-2.954-8.967h-2.702l3.005 9.171-3.005 9.99h2.702l2.954-9.785v9.785h2.727V16.75l2.98 9.862h2.727l-3.03-9.99 3.03-9.171ZM134 12c0-2.505-2.02-4.548-4.495-4.548h-.151c-2.5 0-4.495 2.043-4.495 4.547v14.614h2.702v-7.537h3.712v7.537H134V11.999Zm-6.439 4.342V12c0-.996.808-1.788 1.793-1.788h.151c.985 0 1.768.792 1.768 1.788v4.343h-3.712Z" fill="#212121"/><path fill="#F12D15" d="M0 0h32.617v33H0z"/><path d="M13.262 13.364H12.05l3.075-6.758c.124-.271.276-.47.455-.595.18-.125.39-.188.631-.188.235 0 .442.063.621.188.18.125.331.324.456.595l2.925 6.758h-1.697s-.232-.514-.349-.792l-.962-2.263h-2.008l-.952 2.263-.37.793h-.613Zm2.929-5.444-.994 2.389h2.008L16.21 7.92h-.02ZM13.322 27.412H12.05v-6.059h4.807c1.067 0 1.907.263 2.52.787.621.525.868 1.342.868 2.308 0 .974-.247 1.652-.869 2.177-.612.524-1.452.787-2.519.787h-3.535Zm.148-1.499h4.258c.581 0 1.162-.383 1.162-1.465 0-1.083-.641-1.493-1.162-1.499-.52-.006-1.455-.033-1.929-.033h-2.33v2.997ZM12.05 16.5h8.194v1.676H12.05z" fill="#fff"/></svg>