<svg width="70" height="61" fill="none" xmlns="http://www.w3.org/2000/svg"><path d="M18.698 3.453v9.01h6.283V6.254h20.038v6.207H51.3v-9.01A3.46 3.46 0 0 0 47.833 0H22.166a3.46 3.46 0 0 0-3.468 3.453Z" fill="#212121"/><path d="M63.384 11.104H6.616C2.968 11.104 0 14.053 0 17.678V54.42C0 58.048 2.966 61 6.61 61h56.78c3.644 0 6.61-2.952 6.61-6.58V17.679c0-3.625-2.968-6.575-6.616-6.575Zm3.882 43.317c0 2.13-1.74 3.862-3.877 3.862H6.611c-2.138 0-3.877-1.733-3.877-3.862V37.25a10.39 10.39 0 0 0 7.65 3.348h4.018c.755 0 1.367-.608 1.367-1.359 0-.75-.612-1.358-1.367-1.358h-4.017c-4.219 0-7.65-3.41-7.65-7.603v-12.6c0-2.127 1.74-3.857 3.88-3.857h56.77c2.14 0 3.88 1.73 3.88 3.857v12.6c0 4.192-3.431 7.603-7.65 7.603h-4.79c-.756 0-1.368.608-1.368 1.358 0 .75.612 1.36 1.367 1.36h4.791a10.39 10.39 0 0 0 7.65-3.35v17.172Z" fill="#AD2312"/><path d="M50.042 37.88H20.127c-.755 0-1.367.609-1.367 1.36 0 .75.612 1.358 1.367 1.358h29.915c.755 0 1.367-.608 1.367-1.359 0-.75-.612-1.358-1.367-1.358ZM51.217 18.37H18.783c-.755 0-1.367.609-1.367 1.36 0 .75.612 1.358 1.367 1.358h32.434c.755 0 1.367-.608 1.367-1.359 0-.75-.612-1.358-1.367-1.358Z" fill="#AD2312"/><path d="M48.455 32.118h8.323v12.883h-8.323V32.118ZM13.222 32.118h8.323v12.883h-8.323V32.118Z" fill="#212121"/></svg>