<svg width="80" height="70" fill="none" xmlns="http://www.w3.org/2000/svg"><path d="M32.899 16.354c-9.16 0-16.611 7.483-16.611 16.68 0 9.199 7.451 16.682 16.61 16.682 9.16 0 16.612-7.483 16.612-16.681s-7.452-16.681-16.611-16.681Zm0 25.968c-5.108 0-9.249-4.158-9.249-9.287 0-5.13 4.14-9.288 9.249-9.288 5.107 0 9.248 4.159 9.248 9.288 0 5.13-4.14 9.287-9.248 9.287Z" fill="#212121"/><path d="m77.669 32.858 2.179-4.58a1.57 1.57 0 0 0-.089-1.51 1.562 1.562 0 0 0-1.322-.731H67.25c-.575 0-1.104.317-1.376.824l-.493.918C62.867 12.052 49.258 0 32.9 0 14.759 0 0 14.82 0 33.035c0 12.345 6.778 23.13 16.794 28.8l-5.468 5.49a1.57 1.57 0 0 0 .001 2.217 1.555 1.555 0 0 0 2.21-.002l6.203-6.229a32.599 32.599 0 0 0 13.159 2.759 32.6 32.6 0 0 0 13.158-2.759l6.203 6.23a1.555 1.555 0 0 0 2.21 0 1.57 1.57 0 0 0 .001-2.215l-5.468-5.492c8.642-4.892 14.874-13.593 16.42-23.818l.451.839c.273.507.801.824 1.376.824h11.188c.536 0 1.035-.276 1.321-.731.286-.455.32-1.026.089-1.511l-2.18-4.58Zm-44.77 30.077c-16.418 0-29.774-13.413-29.774-29.9s13.356-29.9 29.774-29.9c15.834 0 28.82 12.477 29.723 28.156h-4.246C57.481 17.962 46.396 7.394 32.9 7.394c-14.08 0-25.536 11.502-25.536 25.64 0 14.14 11.455 25.642 25.536 25.642 13.616 0 24.777-10.756 25.499-24.251h4.242c-.725 15.844-13.788 28.51-29.741 28.51ZM43.57 31.291c-.833-5.16-5.301-9.11-10.671-9.11-5.962 0-10.812 4.869-10.812 10.854 0 5.985 4.85 10.854 10.812 10.854 5.492 0 10.04-4.133 10.722-9.464h11.646C54.55 46.191 44.791 55.542 32.9 55.542c-12.358 0-22.412-10.096-22.412-22.507 0-12.41 10.054-22.507 22.412-22.507 11.773 0 21.455 9.164 22.344 20.763H43.57ZM32.9 34.425h7.56c-.653 3.596-3.795 6.33-7.56 6.33-4.239 0-7.687-3.463-7.687-7.72s3.448-7.72 7.687-7.72c3.64 0 6.699 2.556 7.488 5.976h-7.488c-.863 0-1.563.701-1.563 1.567 0 .865.7 1.567 1.563 1.567Zm41.629-.892 1.433 3.012h-7.778l-1.98-3.687 1.98-3.687h7.778l-1.433 3.012a1.571 1.571 0 0 0 0 1.35Z" fill="#AD2312"/></svg>