<svg width="42" height="70" fill="none" xmlns="http://www.w3.org/2000/svg"><path d="M21 39.827c4.97 0 9.034-4.052 9.076-9.051.041-5-3.954-9.052-8.925-9.052-4.97 0-9.034 4.053-9.075 9.052-.042 4.999 3.953 9.051 8.924 9.051Z" fill="#212121"/><path d="m41.264 44.342-5.423-2.806c.776-4.623 1.379-9.382 1.379-13.02 0-10.234-4.22-17.39-7.76-21.59C25.624 2.375 21.802.253 21.64.165a1.33 1.33 0 0 0-1.28 0c-.161.088-3.984 2.21-7.82 6.763-3.54 4.2-7.76 11.355-7.76 21.59 0 3.637.602 8.396 1.379 13.018L.735 44.343a1.373 1.373 0 0 0-.712 1.471l3.018 16.23c.084.45.386.829.804 1.007a1.332 1.332 0 0 0 1.27-.125l6.018-4.082h3.429c-.099.462-.15.937-.15 1.416 0 3.323 4.685 8.354 5.624 9.33a1.339 1.339 0 0 0 1.929 0c.938-.976 5.622-6.007 5.622-9.33 0-.48-.05-.954-.149-1.416h3.428l6.018 4.082a1.334 1.334 0 0 0 1.271.125c.418-.178.72-.556.803-1.008l3.019-16.229a1.373 1.373 0 0 0-.712-1.47ZM14.518 8.787c2.63-3.143 5.294-5.053 6.482-5.823 1.19.77 3.852 2.68 6.482 5.823a31.34 31.34 0 0 1 2.114 2.834H12.404a31.302 31.302 0 0 1 2.114-2.834ZM10.8 14.356h20.402c2.208 4.271 3.323 9.011 3.323 14.16 0 8.358-3.457 23.512-4.426 27.592H11.902c-.969-4.08-4.426-19.23-4.426-27.592 0-5.149 1.115-9.889 3.323-14.16ZM2.86 46.312l3.795-1.963a252.09 252.09 0 0 0 2.637 12.454l-3.979 2.699-2.453-13.19ZM24.891 60.26c0 1.387-2.041 4.249-3.891 6.365-1.85-2.116-3.891-4.978-3.891-6.365 0-.488.088-.967.258-1.416h7.266a4 4 0 0 1 .258 1.416Zm11.796-.757-3.979-2.7a252.311 252.311 0 0 0 2.638-12.453l3.794 1.964-2.453 13.189Z" fill="#AD2312"/><path d="M21 35.155c2.374 0 4.305-1.959 4.305-4.367 0-2.407-1.931-4.366-4.305-4.366-2.374 0-4.305 1.959-4.305 4.367 0 2.407 1.931 4.366 4.305 4.366Zm0-5.998c.887 0 1.61.732 1.61 1.632 0 .9-.723 1.632-1.61 1.632a1.622 1.622 0 0 1-1.609-1.632c0-.9.722-1.632 1.61-1.632Z" fill="#fff"/></svg>